<?xml version="1.0" standalone="no"?><!DOCTYPE svg PUBLIC "-//W3C//DTD SVG 1.1//EN" "http://www.w3.org/Graphics/SVG/1.1/DTD/svg11.dtd"><svg t="1757051579682" class="icon" viewBox="0 0 1024 1024" version="1.1" xmlns="http://www.w3.org/2000/svg" p-id="8276" xmlns:xlink="http://www.w3.org/1999/xlink" width="200" height="200"><path d="M854.6 288.7c6 6 9.4 14.1 9.4 22.6V928c0 17.7-14.3 32-32 32H192c-17.7 0-32-14.3-32-32V96c0-17.7 14.3-32 32-32h424.7c8.5 0 16.7 3.4 22.7 9.4l215.2 215.3zM790.2 326L602 137.8V326h188.2z m-157 311.3c-15.2-0.5-31.3 0.7-49.7 3-24.3-15-40.7-35.6-52.3-65.8 0.3-1.2 0.9-3.5 1.1-4.4 0.5-2 0.9-3.6 1.2-5.2 4.3-18.1 6.6-31.4 7.3-44.7 0.5-10.1 0-19.4-1.8-28-3.3-18.6-16.5-29.5-33-30.1-15.4-0.6-29.6 8-33.3 21.4-5.9 21.6-2.5 50.1 10.1 98.6-16 38.1-37.1 82.7-51.2 107.5-18.9 9.7-33.6 18.6-46 28.4-16.3 13-26.5 26.3-29.3 40.3-1.4 6.5 0.7 15 5.4 21.9 5.3 7.9 13.3 13 22.9 13.7 24.2 1.9 53.8-23 86.6-79.3 3.3-1.1 6.8-2.3 11-3.7 2.3-0.8 10.5-3.5 11.9-4 7.5-2.5 13-4.4 18.4-6.1 23.4-7.6 41.1-12.4 57.2-15.2 28 15 60.3 24.8 82.1 24.8 18 0 30.1-9.3 34.5-24 3.9-12.9 0.8-27.8-7.5-36.1-8.5-8.3-24.2-12.4-45.6-13z m-248 128.4v-0.4l0.1-0.3c1.3-3.4 3.2-7 5.6-10.8 4.3-6.6 10.2-13.5 17.5-20.9 3.9-4 8-7.8 12.8-12.1 1.1-1 7.9-7.1 9.2-8.3l11.2-10.4-8.1 12.9c-12.3 19.6-23.5 33.8-33 43-3.5 3.4-6.6 5.9-9.1 7.5-1 0.7-1.9 1.1-2.6 1.4-0.4 0.2-0.8 0.3-1.1 0.3-0.4 0-0.8 0-1.1-0.2-0.9-0.1-1.4-0.9-1.4-1.7z m126-218.3l-2.3 4-1.4-4.4c-3.1-9.8-5.4-24.6-6-38-0.7-15.2 0.5-24.3 5.3-24.3 6.7 0 9.8 10.8 10.1 27.1 0.2 14.2-2.1 29.1-5.7 35.6z m-5.8 58.5l1.5-4 2.1 3.8c11.7 21.2 26.9 39 43.5 51.3l3.6 2.7-4.4 0.9c-16.3 3.4-31.5 8.5-52.3 16.8 2.2-0.9-21.6 8.9-27.6 11.2l-5.3 2 2.8-4.9c12.4-21.6 23.8-47.4 36.1-79.8zM663 682.1c-7.9 3.1-24.8 0.3-54.6-12.4l-7.6-3.2 8.2-0.6c23.3-1.7 39.8-0.4 49.4 3.1 4.1 1.5 6.8 3.4 8 5.6 1.3 2.3 0.7 4.8-1.4 6.3-0.3 0.4-1 0.8-2 1.2z" p-id="8277" fill="#ffffff"></path></svg>