<?xml version="1.0" standalone="no"?><!DOCTYPE svg PUBLIC "-//W3C//DTD SVG 1.1//EN" "http://www.w3.org/Graphics/SVG/1.1/DTD/svg11.dtd"><svg t="1757046800637" class="icon" viewBox="0 0 1024 1024" version="1.1" xmlns="http://www.w3.org/2000/svg" p-id="54350" xmlns:xlink="http://www.w3.org/1999/xlink" width="200" height="200"><path d="M168.832 359.04L489.813333 162.986667a42.666667 42.666667 0 0 1 44.458667 0l320.938667 196.096A85.333333 85.333333 0 0 1 896 431.872V810.666667a85.333333 85.333333 0 0 1-85.333333 85.333333H213.333333a85.333333 85.333333 0 0 1-85.333333-85.333333v-378.794667a85.333333 85.333333 0 0 1 40.832-72.832zM426.666667 554.666667a42.666667 42.666667 0 0 0-42.666667 42.666666v128a42.666667 42.666667 0 0 0 42.666667 42.666667h170.666666a42.666667 42.666667 0 0 0 42.666667-42.666667v-128a42.666667 42.666667 0 0 0-42.666667-42.666666h-170.666666z" fill="#333333" p-id="54351"></path></svg>