<?xml version="1.0" standalone="no"?><!DOCTYPE svg PUBLIC "-//W3C//DTD SVG 1.1//EN" "http://www.w3.org/Graphics/SVG/1.1/DTD/svg11.dtd"><svg t="1757337936269" class="icon" viewBox="0 0 1024 1024" version="1.1" xmlns="http://www.w3.org/2000/svg" p-id="4697" xmlns:xlink="http://www.w3.org/1999/xlink" width="200" height="200"><path d="M910.214996 184.892008h-85.328999V28.44601A28.426 28.426 0 0 0 796.439997 0.00001H227.552003a28.426 28.426 0 0 0-28.447 28.446v156.445998h-85.328999a28.426 28.426 0 0 0-28.446 28.446v227.550998c0 82.389999 60.240999 152.574999 140.111999 167.165998 45.517 104.589999 145.242999 176.453998 258.106997 186.919998v172.131999H284.445002a28.446 28.446 0 1 0 0 56.892999h455.101996a28.446 28.446 0 0 0 0-56.892999H540.442V794.974002c112.863999-10.465 212.589998-82.327999 258.106997-186.918998 79.870999-14.571 140.112999-84.775999 140.112999-167.165998V213.328008a28.426 28.426 0 0 0-28.447-28.436zM142.223004 440.889006V241.774008h56.892999v241.773997a305.691997 305.691997 0 0 0 5.58 58.143c-37.14-18.811-62.472999-57.251999-62.472999-100.801999z m625.769994-227.560998v270.219997a254.389998 254.389998 0 0 1-16.097 88.575999v0.061c-37.017 100.114999-133.404999 167.359998-239.899998 167.359999s-202.882998-67.244999-239.859998-167.359999v-0.061a254.501998 254.501998 0 0 1-16.137999-88.575999V56.893009h511.994995zM881.769996 440.889006c0 43.55-25.334 82.000999-62.463999 100.831999a305.691997 305.691997 0 0 0 5.581-58.162V241.774008h56.892999z" fill="#ffffff" p-id="4698"></path></svg>