<?xml version="1.0" standalone="no"?><!DOCTYPE svg PUBLIC "-//W3C//DTD SVG 1.1//EN" "http://www.w3.org/Graphics/SVG/1.1/DTD/svg11.dtd"><svg t="1756823426460" class="icon" viewBox="0 0 1024 1024" version="1.1" xmlns="http://www.w3.org/2000/svg" p-id="4326" xmlns:xlink="http://www.w3.org/1999/xlink" width="200" height="200"><path d="M890.688 576h-124.672c-6.2912 100.928-27.264 192.7296-58.5216 266.5792 95.36-56.512 164.16-153.1072 183.1936-266.5792z m0-128c-19.0336-113.472-87.8336-210.0672-183.1936-266.5792 31.2512 73.856 52.2304 165.6576 58.528 266.5792h124.672zM133.312 448h124.672c6.2912-100.928 27.264-192.7296 58.5216-266.5792C221.1456 237.9328 152.3456 334.528 133.312 448z m0 128c19.0336 113.472 87.8336 210.0672 183.1936 266.5792-31.2512-73.856-52.2304-165.6576-58.528-266.5792H133.312z m504.416 0h-251.456c6.6944 93.6 27.8848 178.176 59.2 240.7936 16.0448 32.1088 33.4656 55.6416 49.5488 69.248 5.5488 4.6912 10.2336 7.6032 13.8688 9.088 1.7024 0.704 2.528 0.8704 3.1104 0.8704 0.576 0 1.408-0.1664 3.1104-0.864 3.6352-1.4912 8.32-4.4032 13.8688-9.0944 16.0832-13.6064 33.504-37.1392 49.5552-69.248 31.3088-62.6176 52.4992-147.1936 59.2-240.7936z m0-128c-6.6944-93.6-27.8848-178.176-59.2-240.7936-16.0448-32.1088-33.4656-55.6416-49.5488-69.248-5.5488-4.6912-10.2336-7.6032-13.8688-9.088-1.7024-0.704-2.528-0.8704-3.1104-0.8704-0.576 0-1.408 0.1664-3.1104 0.864-3.6352 1.4912-8.32 4.4032-13.8688 9.0944-16.0832 13.6064-33.504 37.1392-49.5552 69.248-31.3088 62.6176-52.4992 147.1936-59.2 240.7936h251.4624zM512 1024c-282.7712 0-512-229.2288-512-512S229.2288 0 512 0s512 229.2288 512 512-229.2288 512-512 512z" fill="#4A4A4A" p-id="4327"></path></svg>