<?xml version="1.0" standalone="no"?><!DOCTYPE svg PUBLIC "-//W3C//DTD SVG 1.1//EN" "http://www.w3.org/Graphics/SVG/1.1/DTD/svg11.dtd"><svg t="1758891283005" class="icon" viewBox="0 0 1024 1024" version="1.1" xmlns="http://www.w3.org/2000/svg" p-id="4818" xmlns:xlink="http://www.w3.org/1999/xlink" width="200" height="200"><path d="M96 256h832c19.2 0 32-12.8 32-32s-12.8-32-32-32H96c-19.2 0-32 12.8-32 32s12.8 32 32 32zM928 480H96c-19.2 0-32 12.8-32 32s12.8 32 32 32h832c19.2 0 32-12.8 32-32s-12.8-32-32-32zM928 768H96c-19.2 0-32 12.8-32 32s12.8 32 32 32h832c19.2 0 32-12.8 32-32s-12.8-32-32-32z" p-id="4819"></path></svg>