<?xml version="1.0" standalone="no"?><!DOCTYPE svg PUBLIC "-//W3C//DTD SVG 1.1//EN" "http://www.w3.org/Graphics/SVG/1.1/DTD/svg11.dtd"><svg t="1756972905366" class="icon" viewBox="0 0 1024 1024" version="1.1" xmlns="http://www.w3.org/2000/svg" p-id="47216" xmlns:xlink="http://www.w3.org/1999/xlink" width="200" height="200"><path d="M986.800006 49.220581l-207.995609-47.998987c-22.599523-5.19989-45.799033 6.599861-54.998838 27.799413l-95.997974 223.995271c-8.399823 19.599586-2.799941 42.599101 13.799709 55.998818l121.197441 99.197905c-71.99848 153.396761-197.795824 280.994067-354.392517 354.392518l-99.197906-121.197441c-13.599713-16.59965-36.399231-22.199531-55.998818-13.799709l-223.99527 95.997973C7.820675 733.006144-3.979076 756.205654 1.220815 778.805177l47.998986 207.995608C54.219696 1008.400329 73.41929 1024 96.018813 1024c512.189186 0 927.980407-414.991238 927.980407-927.980407 0-22.399527-15.399675-41.799117-37.199214-46.799012z" fill="#ffffff" p-id="47217"></path></svg>